<svg width="32" height="32" viewBox="0 0 32 32" fill="none" xmlns="http://www.w3.org/2000/svg">
  <!-- Background circle -->
  <circle cx="16" cy="16" r="16" fill="#0b0c10"/>
  
  <!-- Code brackets -->
  <path d="M8 10L6 12L8 14" stroke="#5eead4" stroke-width="2" stroke-linecap="round" stroke-linejoin="round"/>
  <path d="M24 10L26 12L24 14" stroke="#5eead4" stroke-width="2" stroke-linecap="round" stroke-linejoin="round"/>
  
  <!-- Central "B" for Basel -->
  <path d="M12 8V24M12 8H16C17.1046 8 18 8.89543 18 10V12C18 13.1046 17.1046 14 16 14H12M12 14H16C17.1046 14 18 14.8954 18 16V18C18 19.1046 17.1046 20 16 20H12" stroke="#60a5fa" stroke-width="2" stroke-linecap="round" stroke-linejoin="round"/>
  
  <!-- Binary dots -->
  <circle cx="20" cy="20" r="1.5" fill="#5eead4"/>
  <circle cx="22" cy="22" r="1.5" fill="#60a5fa"/>
  <circle cx="20" cy="24" r="1.5" fill="#5eead4"/>
</svg>
